<svg xmlns="http://www.w3.org/2000/svg" width="780" height="440" viewBox="0 0 780 440" fill="none"><rect width="780" height="440" fill="#CE3665"></rect><path d="M549.757 124.967H230.243V315.033H549.757V124.967Z" fill="white" stroke="#040404" stroke-width="1.5" stroke-miterlimit="10"></path><path d="M535.128 140.648H243.503V300.405H535.128V140.648Z" fill="#EBF9EB" stroke="#040404" stroke-width="1.5" stroke-miterlimit="10"></path><path d="M255.817 288.407H522.92" stroke="#040404" stroke-width="1.5" stroke-miterlimit="10" stroke-linecap="round"></path><path d="M279.707 293.564C282.555 293.564 284.863 291.255 284.863 288.407C284.863 285.559 282.555 283.25 279.707 283.25C276.859 283.25 274.55 285.559 274.55 288.407C274.55 291.255 276.859 293.564 279.707 293.564Z" fill="white" stroke="#040404" stroke-width="1.5" stroke-miterlimit="10"></path><path d="M443.042 189.858C441.779 185.122 437.99 181.333 433.254 180.071C424.625 177.755 390 177.755 390 177.755C390 177.755 355.375 177.755 346.746 180.071C342.01 181.333 338.221 185.122 336.958 189.858C334.643 198.488 334.643 216.484 334.643 216.484C334.643 216.484 334.643 234.481 336.958 243.11C338.221 247.846 342.01 251.635 346.746 252.898C355.375 255.213 390 255.213 390 255.213C390 255.213 424.625 255.213 433.254 252.898C437.99 251.635 441.779 247.846 443.042 243.11C445.357 234.481 445.357 216.484 445.357 216.484C445.357 216.484 445.357 198.383 443.042 189.858Z" fill="#CE3665" stroke="#040404" stroke-width="1.5" stroke-miterlimit="10"></path><path d="M378.95 233.007L407.681 216.484L378.95 199.856V233.007Z" fill="white" stroke="#040404" stroke-width="1.5" stroke-miterlimit="10"></path><path d="M122.167 142.639C133.031 142.639 141.839 133.831 141.839 122.967C141.839 112.102 133.031 103.295 122.167 103.295C111.302 103.295 102.495 112.102 102.495 122.967C102.495 133.831 111.302 142.639 122.167 142.639Z" fill="#EBF9EB" stroke="#040404" stroke-width="1.34738" stroke-miterlimit="10" stroke-linecap="round" stroke-linejoin="round"></path><path d="M122.167 124.763C120.101 124.763 118.394 124.045 116.867 122.518C115.52 121.17 114.622 119.284 114.622 117.218C114.622 115.152 115.34 113.266 116.867 111.918C118.215 110.571 120.101 109.673 122.167 109.673C124.233 109.673 125.94 110.391 127.467 111.918C128.814 113.266 129.712 115.152 129.712 117.218C129.712 119.284 128.994 121.17 127.467 122.518C126.119 124.045 124.233 124.763 122.167 124.763Z" fill="white" stroke="#040404" stroke-width="1.34738" stroke-miterlimit="10" stroke-linecap="round" stroke-linejoin="round"></path><path d="M133.844 138.057V136.171C133.844 129.883 128.724 124.763 122.436 124.763H121.897C115.61 124.763 110.49 129.883 110.49 136.171V138.057C110.49 138.057 113.723 142.639 122.257 142.639C130.79 142.639 133.844 138.057 133.844 138.057Z" fill="white" stroke="#040404" stroke-width="1.34738" stroke-miterlimit="10" stroke-linecap="round" stroke-linejoin="round"></path><path d="M299.014 146.95H165.354C162.12 146.95 159.515 144.345 159.515 141.112V104.822C159.515 101.588 162.12 98.9834 165.354 98.9834H299.014C302.248 98.9834 304.853 101.588 304.853 104.822V141.112C304.943 144.345 302.248 146.95 299.014 146.95Z" fill="white" stroke="#040404" stroke-width="1.34738" stroke-miterlimit="10" stroke-linecap="round" stroke-linejoin="round"></path><path d="M177.842 117.04H285.992" stroke="#040404" stroke-width="1.34738" stroke-miterlimit="10" stroke-linecap="round" stroke-linejoin="round"></path><path d="M177.842 129.975H252.307" stroke="#040404" stroke-width="1.34738" stroke-miterlimit="10" stroke-linecap="round" stroke-linejoin="round"></path><path d="M541.822 344.245C559.411 344.245 573.67 329.987 573.67 312.397C573.67 294.808 559.411 280.55 541.822 280.55C524.233 280.55 509.974 294.808 509.974 312.397C509.974 329.987 524.233 344.245 541.822 344.245Z" fill="white" stroke="#040404" stroke-width="1.5" stroke-miterlimit="10"></path><path d="M558.391 315.841L557.315 316.163L558.068 317.132C558.391 317.562 558.606 318.1 558.606 318.638C558.606 319.822 557.745 320.898 556.562 321.005L555.486 321.22L556.024 322.189C556.239 322.511 556.347 322.942 556.347 323.265C556.347 324.556 555.378 325.632 554.087 325.739H539.992C539.992 325.739 538.271 325.739 536.98 324.663C536.657 324.448 536.442 324.233 536.227 324.125L535.904 324.018V310.891L537.41 309.6L542.359 300.347C542.575 300.024 542.79 299.594 542.79 299.163C542.897 298.733 542.897 298.303 542.897 297.872L542.467 292.708C542.79 292.493 543.22 292.385 543.651 292.385C545.802 292.385 547.632 295.828 547.632 298.625C547.632 299.056 547.632 299.379 547.524 299.809L546.663 305.404H557.423C558.068 305.404 558.821 305.727 559.252 306.157C559.682 306.587 560.005 307.233 560.005 307.879C560.005 308.632 559.682 309.385 559.037 309.815L558.068 310.568L559.144 311.214C559.897 311.644 560.435 312.505 560.435 313.366C560.113 314.549 559.359 315.518 558.391 315.841Z" fill="#98E58E" stroke="#040404" stroke-width="1.5" stroke-miterlimit="10"></path><path d="M527.189 308.847H535.043C535.581 308.847 535.904 309.277 535.904 309.708V324.986C535.904 325.524 535.473 325.847 535.043 325.847H527.189C526.651 325.847 526.328 325.416 526.328 324.986V309.708C526.328 309.17 526.758 308.847 527.189 308.847Z" fill="#98E58E" stroke="#040404" stroke-width="1.5" stroke-miterlimit="10"></path><path d="M585.735 332.216C585.735 332.216 586.212 309.936 613.139 309.221V300.405L631.844 318.395L613.734 333.527V326.259C613.615 326.378 599.556 321.493 585.735 332.216Z" fill="#98E58E" stroke="#040404" stroke-width="1.5" stroke-miterlimit="10"></path><path d="M607.244 200.366H584.328V244.915H607.244V200.366Z" fill="white" stroke="#040404" stroke-width="1.5" stroke-miterlimit="10"></path><path d="M607.244 225.898H584.328V244.917H607.244V225.898Z" fill="#59CB59" stroke="#040404" stroke-width="1.5" stroke-miterlimit="10"></path><path d="M644.479 186.573H621.563V244.909H644.479V186.573Z" fill="white" stroke="#040404" stroke-width="1.5" stroke-miterlimit="10"></path><path d="M644.479 208.391H621.563V244.906H644.479V208.391Z" fill="#59CB59" stroke="#040404" stroke-width="1.5" stroke-miterlimit="10"></path><path d="M681.717 171.721H658.801V244.907H681.717V171.721Z" fill="white" stroke="#040404" stroke-width="1.5" stroke-miterlimit="10"></path><path d="M681.717 191.696H658.801V244.909H681.717V191.696Z" fill="#59CB59" stroke="#040404" stroke-width="1.5" stroke-miterlimit="10"></path><path d="M621.39 173.315H593.59C588.39 173.315 584.09 169.015 584.09 163.815V156.215C584.09 151.015 588.39 146.715 593.59 146.715H621.39C626.59 146.715 630.89 151.015 630.89 156.215V163.815C630.89 169.115 626.69 173.315 621.39 173.315Z" fill="#59CB59" stroke="#040404" stroke-width="1.5" stroke-miterlimit="10"></path><path d="M591.29 165.515L602.09 154.815" stroke="#040404" stroke-width="1.5" stroke-miterlimit="10" stroke-linecap="round" stroke-linejoin="round"></path><path d="M602.19 162.215V154.715H594.69" stroke="#040404" stroke-width="1.5" stroke-miterlimit="10" stroke-linecap="round" stroke-linejoin="round"></path><path d="M611.19 159.415C612.515 159.415 613.59 158.34 613.59 157.015C613.59 155.689 612.515 154.615 611.19 154.615C609.864 154.615 608.79 155.689 608.79 157.015C608.79 158.34 609.864 159.415 611.19 159.415Z" stroke="#040404" stroke-width="1.5" stroke-miterlimit="10" stroke-linecap="round" stroke-linejoin="round"></path><path d="M620.09 165.615C621.415 165.615 622.49 164.54 622.49 163.215C622.49 161.889 621.415 160.815 620.09 160.815C618.764 160.815 617.69 161.889 617.69 163.215C617.69 164.54 618.764 165.615 620.09 165.615Z" stroke="#040404" stroke-width="1.5" stroke-miterlimit="10" stroke-linecap="round" stroke-linejoin="round"></path><path d="M610.19 165.515L620.99 154.815" stroke="#040404" stroke-width="1.5" stroke-miterlimit="10" stroke-linecap="round" stroke-linejoin="round"></path><path d="M182.163 321.095L167.983 312.905C167.013 312.345 165.793 313.045 165.793 314.165V330.545C165.793 331.665 167.013 332.375 167.983 331.805L182.163 323.615C183.133 323.055 183.133 321.655 182.163 321.095Z" stroke="#040404" stroke-width="1.5" stroke-miterlimit="10" stroke-linecap="round" stroke-linejoin="round"></path><path d="M236.643 354.085L228.703 349.495C228.043 349.115 227.233 349.585 227.233 350.345V359.515C227.233 360.275 228.053 360.745 228.703 360.365L236.643 355.775C237.303 355.405 237.303 354.465 236.643 354.085Z" stroke="#040404" stroke-width="1.5" stroke-miterlimit="10" stroke-linecap="round" stroke-linejoin="round"></path><path d="M195.063 343.755V360.755" stroke="#040404" stroke-width="1.5" stroke-miterlimit="10" stroke-linecap="round" stroke-linejoin="round"></path><path d="M186.473 352.255H203.473" stroke="#040404" stroke-width="1.5" stroke-miterlimit="10" stroke-linecap="round" stroke-linejoin="round"></path></svg>